<svg width="18" height="19" viewBox="0 0 18 19" fill="none" xmlns="http://www.w3.org/2000/svg">
<path d="M17.3457 1.71617L13.6895 0.895877C13.2922 0.807012 12.8844 1.00867 12.7227 1.37096L11.0353 5.19901C10.8876 5.53396 10.986 5.92702 11.2778 6.15602L13.4083 7.8513C12.1427 10.4728 9.93138 12.6534 7.1787 13.9078L5.43499 11.8366C5.19593 11.5529 4.79515 11.4572 4.45063 11.6007L0.51321 13.2413C0.137046 13.402 -0.0703721 13.7984 0.0210322 14.1847L0.864765 17.7393C0.952654 18.1084 1.29015 18.375 1.6874 18.375C10.6907 18.375 17.9996 11.2829 17.9996 2.51596C17.9996 2.13316 17.7289 1.80162 17.3457 1.71617Z" fill="#E0653B"/>
</svg>
