<svg width="40" height="39" viewBox="0 0 40 39" fill="none" xmlns="http://www.w3.org/2000/svg">
<path d="M40 16.1407V17.4844C40 18.5976 39.2538 19.5 38.3333 19.5H37.7778L35.9644 34.8514C35.7298 36.8373 34.3234 38.3125 32.6646 38.3125H7.33542C5.6766 38.3125 4.27021 36.8373 4.03556 34.8514L2.22222 19.5H1.66667C0.746181 19.5 0 18.5976 0 17.4844V16.1407C0 15.0274 0.746181 14.125 1.66667 14.125H6.34313L13.7584 1.79435C14.4803 0.59405 15.87 0.328575 16.8626 1.20159C17.8552 2.07461 18.0747 3.75539 17.3528 4.95578L11.8387 14.125H28.1613L22.6472 4.95569C21.9253 3.75539 22.1449 2.07453 23.1374 1.20151C24.1299 0.328491 25.5198 0.593882 26.2417 1.79427L33.6569 14.125H38.3333C39.2538 14.125 40 15.0274 40 16.1407ZM21.6667 30.9219V21.5157C21.6667 20.4024 20.9205 19.5 20 19.5C19.0795 19.5 18.3333 20.4024 18.3333 21.5157V30.9219C18.3333 32.0351 19.0795 32.9375 20 32.9375C20.9205 32.9375 21.6667 32.0351 21.6667 30.9219ZM29.4444 30.9219V21.5157C29.4444 20.4024 28.6983 19.5 27.7778 19.5C26.8573 19.5 26.1111 20.4024 26.1111 21.5157V30.9219C26.1111 32.0351 26.8573 32.9375 27.7778 32.9375C28.6983 32.9375 29.4444 32.0351 29.4444 30.9219ZM13.8889 30.9219V21.5157C13.8889 20.4024 13.1427 19.5 12.2222 19.5C11.3017 19.5 10.5556 20.4024 10.5556 21.5157V30.9219C10.5556 32.0351 11.3017 32.9375 12.2222 32.9375C13.1427 32.9375 13.8889 32.0351 13.8889 30.9219Z" fill="white"/>
</svg>
