<svg width="27" height="19" viewBox="0 0 27 19" fill="none" xmlns="http://www.w3.org/2000/svg">
<path d="M16.4031 8.58624C16.4837 9.04055 16.5412 9.49486 16.5412 10.0842C16.5412 15.2288 13.3066 18.8755 8.4375 18.8755C3.77561 18.8755 0 14.8482 0 9.87549C0 4.90275 3.77561 0.875488 8.4375 0.875488C10.7167 0.875488 12.616 1.7595 14.0894 3.23293L11.7987 5.57808C11.1771 4.9396 10.0836 4.19063 8.4375 4.19063C5.55978 4.19063 3.21152 6.73224 3.21152 9.87549C3.21152 13.0187 5.55978 15.5603 8.4375 15.5603C11.7756 15.5603 13.0304 12.9942 13.226 11.6804H8.4375V8.58619H16.4031V8.58624ZM24.5508 8.88797V6.27549H22.0898V8.88797H19.6406V11.513H22.0898V14.1255H24.5508V11.513H27V8.88797H24.5508Z" fill="#E0653B"/>
</svg>
