<svg width="19" height="17" viewBox="0 0 19 17" fill="none" xmlns="http://www.w3.org/2000/svg">
<path d="M9.66889 16.0101C9.41633 16.0101 9.17283 15.9207 8.98307 15.7582C8.26639 15.1457 7.57543 14.5701 6.96581 14.0624L6.9627 14.0598C5.1754 12.5711 3.632 11.2855 2.55814 10.0191C1.35772 8.60332 0.798584 7.26097 0.798584 5.79454C0.798584 4.36977 1.29843 3.05534 2.20595 2.09319C3.12431 1.11967 4.38442 0.583496 5.75456 0.583496C6.77862 0.583496 7.71646 0.899934 8.54197 1.52395C8.95857 1.83893 9.3362 2.22442 9.66889 2.67408C10.0017 2.22442 10.3792 1.83893 10.796 1.52395C11.6215 0.899934 12.5593 0.583496 13.5834 0.583496C14.9534 0.583496 16.2136 1.11967 17.132 2.09319C18.0395 3.05534 18.5392 4.36977 18.5392 5.79454C18.5392 7.26097 17.9802 8.60332 16.7798 10.019C15.7059 11.2855 14.1627 12.571 12.3756 14.0595C11.7649 14.568 11.0729 15.1445 10.3546 15.7585C10.1649 15.9207 9.92132 16.0101 9.66889 16.0101ZM5.75456 1.59922C4.67813 1.59922 3.68926 2.01911 2.96987 2.78163C2.23979 3.55566 1.83767 4.62562 1.83767 5.79454C1.83767 7.02788 2.30666 8.13091 3.35819 9.371C4.37453 10.5697 5.88626 11.8288 7.63661 13.2868L7.63986 13.2894C8.25177 13.7992 8.94544 14.377 9.6674 14.994C10.3937 14.3758 11.0884 13.797 11.7016 13.2865C13.4518 11.8286 14.9634 10.5697 15.9797 9.371C17.0311 8.13091 17.5001 7.02788 17.5001 5.79454C17.5001 4.62562 17.098 3.55566 16.3679 2.78163C15.6487 2.01911 14.6597 1.59922 13.5834 1.59922C12.7948 1.59922 12.0708 1.84422 11.4316 2.32735C10.8619 2.75808 10.465 3.30259 10.2324 3.68358C10.1127 3.87951 9.9021 3.99645 9.66889 3.99645C9.43568 3.99645 9.22508 3.87951 9.10543 3.68358C8.8729 3.30259 8.47605 2.75808 7.90623 2.32735C7.26697 1.84422 6.54298 1.59922 5.75456 1.59922Z" fill="#F51264"/>
</svg>
