<svg width="18" height="18" viewBox="0 0 18 18" fill="none" xmlns="http://www.w3.org/2000/svg">
<path d="M9.00336 4.50781C6.44801 4.50781 4.38685 6.51172 4.38685 8.99609C4.38685 11.4805 6.44801 13.4844 9.00336 13.4844C11.5587 13.4844 13.6199 11.4805 13.6199 8.99609C13.6199 6.51172 11.5587 4.50781 9.00336 4.50781ZM9.00336 11.9141C7.35202 11.9141 6.00203 10.6055 6.00203 8.99609C6.00203 7.38672 7.34801 6.07812 9.00336 6.07812C10.6587 6.07812 12.0047 7.38672 12.0047 8.99609C12.0047 10.6055 10.6547 11.9141 9.00336 11.9141ZM14.8855 4.32422C14.8855 4.90625 14.4034 5.37109 13.8087 5.37109C13.2101 5.37109 12.7319 4.90234 12.7319 4.32422C12.7319 3.74609 13.2141 3.27734 13.8087 3.27734C14.4034 3.27734 14.8855 3.74609 14.8855 4.32422ZM17.9431 5.38672C17.8748 3.98438 17.5453 2.74219 16.4886 1.71875C15.4359 0.695312 14.1583 0.375 12.7159 0.304687C11.2293 0.222656 6.77345 0.222656 5.28685 0.304687C3.84846 0.371094 2.57078 0.691406 1.51408 1.71484C0.457387 2.73828 0.13194 3.98047 0.0596191 5.38281C-0.0247558 6.82812 -0.0247558 11.1602 0.0596191 12.6055C0.127923 14.0078 0.457387 15.25 1.51408 16.2734C2.57078 17.2969 3.84444 17.6172 5.28685 17.6875C6.77345 17.7695 11.2293 17.7695 12.7159 17.6875C14.1583 17.6211 15.4359 17.3008 16.4886 16.2734C17.5413 15.25 17.8708 14.0078 17.9431 12.6055C18.0275 11.1602 18.0275 6.83203 17.9431 5.38672ZM16.0226 14.1562C15.7092 14.9219 15.1025 15.5117 14.3109 15.8203C13.1257 16.2773 10.3132 16.1719 9.00336 16.1719C7.69354 16.1719 4.87703 16.2734 3.69578 15.8203C2.90828 15.5156 2.30158 14.9258 1.98417 14.1562C1.51408 13.0039 1.62256 10.2695 1.62256 8.99609C1.62256 7.72266 1.5181 4.98438 1.98417 3.83594C2.29756 3.07031 2.90426 2.48047 3.69578 2.17187C4.88104 1.71484 7.69354 1.82031 9.00336 1.82031C10.3132 1.82031 13.1297 1.71875 14.3109 2.17187C15.0984 2.47656 15.7051 3.06641 16.0226 3.83594C16.4926 4.98828 16.3842 7.72266 16.3842 8.99609C16.3842 10.2695 16.4926 13.0078 16.0226 14.1562Z" fill="#E0653B"/>
</svg>
