<svg width="35" height="29" viewBox="0 0 35 29" fill="none" xmlns="http://www.w3.org/2000/svg">
<path d="M28.4375 27.5H22.6953C22.2441 27.5 21.875 27.1203 21.875 26.6563V23.8438C21.875 23.3797 22.2441 23 22.6953 23H28.4375C29.6475 23 30.625 21.9945 30.625 20.75V7.25C30.625 6.00547 29.6475 5 28.4375 5H22.6953C22.2441 5 21.875 4.62031 21.875 4.15625V1.34375C21.875 0.879688 22.2441 0.5 22.6953 0.5H28.4375C32.0605 0.5 35 3.52344 35 7.25V20.75C35 24.4766 32.0605 27.5 28.4375 27.5ZM25.2246 13.3672L13.7402 1.55469C12.7148 0.5 10.9375 1.23828 10.9375 2.75V9.5H1.64062C0.731445 9.5 0 10.2523 0 11.1875V17.9375C0 18.8727 0.731445 19.625 1.64062 19.625H10.9375V26.375C10.9375 27.8867 12.7148 28.625 13.7402 27.5703L25.2246 15.7578C25.8604 15.0969 25.8604 14.0281 25.2246 13.3672Z" fill="white"/>
</svg>
