<svg width="18" height="13" viewBox="0 0 18 13" fill="none" xmlns="http://www.w3.org/2000/svg">
<path d="M17.659 4.33516C17.7961 4.23223 18 4.32852 18 4.49121V11.2812C18 12.1611 17.2441 12.875 16.3125 12.875H1.6875C0.755859 12.875 0 12.1611 0 11.2812V4.49453C0 4.32852 0.200391 4.23555 0.341016 4.33848C1.12852 4.91621 2.17266 5.65 5.75859 8.11035C6.50039 8.62168 7.75195 9.69746 9 9.69082C10.2551 9.70078 11.5312 8.60176 12.2449 8.11035C15.8309 5.65 16.8715 4.91289 17.659 4.33516ZM9 8.625C9.81563 8.63828 10.9898 7.65547 11.5805 7.25039C16.2457 4.05293 16.6008 3.77402 17.6766 2.97715C17.8805 2.82773 18 2.59531 18 2.34961V1.71875C18 0.838867 17.2441 0.125 16.3125 0.125H1.6875C0.755859 0.125 0 0.838867 0 1.71875V2.34961C0 2.59531 0.119531 2.82441 0.323437 2.97715C1.39922 3.7707 1.7543 4.05293 6.41953 7.25039C7.01016 7.65547 8.18437 8.63828 9 8.625Z" fill="#E0653B"/>
</svg>
