<svg width="25" height="25" viewBox="0 0 25 25" fill="none" xmlns="http://www.w3.org/2000/svg">
<g clip-path="url(#clip0)">
<path d="M22.5255 9.79555H21.6747L17.8654 2.61086C17.6842 2.26901 17.2601 2.13894 16.9183 2.32001C16.5764 2.50126 16.4462 2.92531 16.6275 3.26716L20.0888 9.79545H4.78419L8.24553 3.26716C8.42678 2.92531 8.29658 2.50126 7.95472 2.32001C7.61291 2.1388 7.18882 2.26901 7.00757 2.61086L3.1983 9.79555H2.24586C1.24462 9.79555 0.430054 10.6101 0.430054 11.6114C0.430054 12.6126 1.24462 13.4272 2.24586 13.4272H2.29625C2.29779 13.4372 2.29896 13.4472 2.30074 13.4572L3.76175 21.6493C4.0365 23.1897 5.37156 24.3078 6.93625 24.3078H17.9366C19.5013 24.3078 20.8364 23.1897 21.1111 21.6493L22.5722 13.4572C22.574 13.4468 22.5753 13.4363 22.5769 13.4259C23.5544 13.3985 24.3413 12.5954 24.3413 11.6114C24.3413 10.6101 23.5267 9.79555 22.5255 9.79555ZM19.7318 21.4033C19.5765 22.2744 18.8215 22.9067 17.9367 22.9067H6.9363C6.05149 22.9067 5.29656 22.2745 5.14118 21.4033L3.71874 13.4272H21.1543L19.7318 21.4033ZM22.5255 12.026H2.24586C2.01721 12.026 1.83124 11.84 1.83124 11.6114C1.83124 11.3827 2.01721 11.1967 2.24586 11.1967H22.5255C22.7541 11.1967 22.9401 11.3827 22.9401 11.6114C22.9401 11.84 22.7542 12.026 22.5255 12.026Z" fill="white"/>
<path d="M12.3554 13.3991C11.9685 13.3991 11.6548 13.7128 11.6548 14.0997V20.234C11.6548 20.6209 11.9685 20.9346 12.3554 20.9346C12.7423 20.9346 13.056 20.6209 13.056 20.234V14.0997C13.056 13.7128 12.7423 13.3991 12.3554 13.3991Z" fill="white"/>
<path d="M9.9651 20.1177L8.93187 13.9834C8.86766 13.6018 8.50581 13.3445 8.12463 13.4088C7.74308 13.4731 7.48589 13.8345 7.55016 14.2161L8.58343 20.3504C8.64106 20.6926 8.93766 20.9347 9.2734 20.9347C9.31207 20.9347 9.35125 20.9315 9.39057 20.9249C9.77217 20.8607 10.0294 20.4992 9.9651 20.1177Z" fill="white"/>
<path d="M16.5372 13.4089C16.1561 13.3449 15.7944 13.6018 15.73 13.9834L14.6968 20.1177C14.6326 20.4992 14.8898 20.8606 15.2713 20.9249C15.3107 20.9316 15.3498 20.9348 15.3885 20.9348C15.7243 20.9348 16.0209 20.6926 16.0784 20.3504L17.1117 14.2161C17.176 13.8346 16.9188 13.4731 16.5372 13.4089Z" fill="white"/>
</g>
<defs>
<clipPath id="clip0">
<rect width="23.9113" height="23.9113" fill="white" transform="translate(0.430054 0.317383)"/>
</clipPath>
</defs>
</svg>
