<svg width="37" height="26" viewBox="0 0 37 26" fill="none" xmlns="http://www.w3.org/2000/svg">
<path fill-rule="evenodd" clip-rule="evenodd" d="M30.5262 0.211103C32.7018 0.335011 33.7703 0.660844 34.7548 2.43227C35.7802 4.2014 36.2975 7.24863 36.2975 12.6157V12.6226V12.634C36.2975 17.9759 35.7802 21.046 34.7571 22.7968C33.7725 24.5682 32.704 24.8895 30.5284 25.0386C28.3529 25.1648 22.8878 25.2406 18.1533 25.2406C13.4097 25.2406 7.94234 25.1648 5.76903 25.0363C3.59799 24.8872 2.52948 24.5659 1.53584 22.7945C0.521776 21.0437 0 17.9736 0 12.6317V12.6272V12.6203V12.6134C0 7.24863 0.521776 4.2014 1.53584 2.43227C2.52948 0.658549 3.60026 0.335011 5.7713 0.208808C7.94234 0.0619541 13.4097 0 18.1533 0C22.8878 0 28.3529 0.0619541 30.5262 0.211103ZM13.6115 5.73634V19.5039L24.9545 12.6201L13.6115 5.73634Z" fill="#E0653B"/>
</svg>
